<svg width="20" height="20" viewBox="0 0 20 20" fill="none" xmlns="http://www.w3.org/2000/svg">
<g clip-path="url(#clip0_52_141)">
<path d="M10.1968 20.0001C10.1306 20.0001 10.0644 20.0001 9.99771 19.9998C8.43002 20.0036 6.98151 19.9638 5.57281 19.878C4.28131 19.7994 3.10242 19.3531 2.16339 18.5874C1.25732 17.8486 0.63858 16.8496 0.324402 15.6185C0.0509644 14.5467 0.0364685 13.4946 0.022583 12.477C0.0125122 11.7469 0.00213623 10.8817 0 10.0019C0.00213623 9.11842 0.0125122 8.25324 0.022583 7.52311C0.0364685 6.50565 0.0509644 5.45356 0.324402 4.38163C0.63858 3.15055 1.25732 2.15156 2.16339 1.41273C3.10242 0.647039 4.28131 0.200719 5.57297 0.122136C6.98166 0.0365345 8.43048 -0.00344356 10.0015 0.000371138C11.5697 -0.0029858 13.0177 0.0365345 14.4264 0.122136C15.7179 0.200719 16.8968 0.647039 17.8358 1.41273C18.7421 2.15156 19.3607 3.15055 19.6748 4.38163C19.9483 5.45341 19.9628 6.50565 19.9767 7.52311C19.9867 8.25324 19.9973 9.11842 19.9992 9.99824C19.9973 10.8817 19.9867 11.7469 19.9767 12.477C19.9709 12.9085 19.6144 13.2534 19.1849 13.2476C18.7534 13.2416 18.4085 12.887 18.4143 12.4557C18.4242 11.7298 18.4348 10.8703 18.4367 9.99824C18.4348 9.12986 18.4242 8.27033 18.4143 7.54447C18.4016 6.61811 18.3885 5.66016 18.1609 4.76798C17.9312 3.86802 17.4896 3.14658 16.8484 2.62366C16.1549 2.05802 15.3081 1.74109 14.3315 1.68174C12.9559 1.59812 11.5399 1.55951 10.0015 1.56272C8.45947 1.55906 7.0433 1.59812 5.66772 1.68174C4.69116 1.74109 3.84445 2.05802 3.15079 2.62351C2.50961 3.14643 2.06802 3.86787 1.83838 4.76798C1.61072 5.66016 1.5976 6.61811 1.58493 7.54447C1.57501 8.27033 1.56464 9.12986 1.5625 10.0019C1.56464 10.8703 1.57501 11.7298 1.58493 12.4557C1.5976 13.382 1.61072 14.34 1.83838 15.2322C2.06802 16.1321 2.50961 16.8536 3.15079 17.3765C3.84445 17.9421 4.69116 18.259 5.66772 18.3184C7.0433 18.402 8.45978 18.4411 9.99786 18.4373C11.5401 18.4409 12.9559 18.402 14.3315 18.3184C15.3081 18.259 16.1548 17.9421 16.8484 17.3765C17.3103 16.9997 17.6712 16.5163 17.921 15.9396C18.0925 15.5437 18.5524 15.3617 18.9484 15.5332C19.3443 15.7047 19.5262 16.1646 19.3549 16.5606C19.0047 17.3692 18.4937 18.0511 17.8358 18.5874C16.8968 19.3533 15.7179 19.7994 14.4264 19.878C13.0774 19.9601 11.6916 20.0001 10.1968 20.0001V20.0001ZM14.8433 10.0001C14.8433 7.30766 12.6529 5.11726 9.96048 5.11726C7.26822 5.11726 5.07767 7.30766 5.07767 10.0001C5.07767 12.6925 7.26822 14.8829 9.96048 14.8829C12.6529 14.8829 14.8433 12.6925 14.8433 10.0001ZM13.2808 10.0001C13.2808 11.8308 11.7914 13.3204 9.96048 13.3204C8.12973 13.3204 6.64017 11.8308 6.64017 10.0001C6.64017 8.16932 8.12973 6.67976 9.96048 6.67976C11.7914 6.67976 13.2808 8.16932 13.2808 10.0001ZM15.3902 3.55476C14.743 3.55476 14.2183 4.07935 14.2183 4.72663C14.2183 5.37391 14.743 5.89851 15.3902 5.89851C16.0374 5.89851 16.562 5.37391 16.562 4.72663C16.562 4.07935 16.0374 3.55476 15.3902 3.55476Z" fill="#4C5D77"/>
</g>
<defs>
<clipPath id="clip0_52_141">
<rect width="20" height="20" fill="white"/>
</clipPath>
</defs>
</svg>
