<svg width="25" height="18" viewBox="0 0 25 18" fill="none" xmlns="http://www.w3.org/2000/svg">
<path d="M24.6595 7.78002L17.22 0.340431C16.766 -0.113477 16.0299 -0.113477 15.576 0.340431C15.122 0.794432 15.122 1.53039 15.576 1.98439L21.0312 7.43957H1.16244C0.520492 7.43957 0 7.96006 0 8.602C0 9.24385 0.520492 9.76444 1.16244 9.76444H21.0312L15.5762 15.2196C15.1222 15.6736 15.1222 16.4096 15.5762 16.8636C15.8031 17.0904 16.1007 17.204 16.3982 17.204C16.6956 17.204 16.9931 17.0904 17.2201 16.8636L24.6595 9.42398C25.1135 8.96998 25.1135 8.23402 24.6595 7.78002Z" fill="#7737FF"/>
</svg>
