<svg width="72" height="72" viewBox="0 0 72 72" fill="none" xmlns="http://www.w3.org/2000/svg">
<circle cx="36" cy="36" r="36" fill="#00006D" fill-opacity="0.31"/>
<path d="M48.8744 24.1256C45.569 20.8203 41.1744 19 36.5 19C31.8256 19 27.431 20.8203 24.1256 24.1256C20.8203 27.431 19 31.8256 19 36.5C19 41.1744 20.8203 45.569 24.1256 48.8744C27.431 52.1797 31.8256 54 36.5 54C39.7001 54 42.8312 53.1279 45.555 51.478C46.2008 51.0867 46.4073 50.246 46.016 49.6003C45.6247 48.9543 44.784 48.748 44.1383 49.1392C41.8419 50.5304 39.2005 51.2656 36.5 51.2656C28.3582 51.2656 21.7344 44.6418 21.7344 36.5C21.7344 28.3582 28.3582 21.7344 36.5 21.7344C44.6418 21.7344 51.2656 28.3582 51.2656 36.5C51.2656 39.4114 50.3999 42.2452 48.7619 44.6952C48.3422 45.3229 48.5109 46.172 49.1386 46.5916C49.7664 47.0114 50.6154 46.8426 51.035 46.215C52.9747 43.3137 54 39.9542 54 36.5C54 31.8256 52.1797 27.431 48.8744 24.1256Z" fill="white"/>
<path d="M35.0415 29.3512C34.0785 28.7924 32.9277 28.7905 31.9631 29.3462C30.995 29.9036 30.417 30.9046 30.417 32.0237V40.9764C30.417 42.0955 30.995 43.0965 31.9631 43.654C32.444 43.931 32.9709 44.0693 33.498 44.0693C34.0282 44.0693 34.5586 43.929 35.0415 43.6488L42.7557 39.1725C43.7182 38.614 44.2929 37.6149 44.2929 36.5C44.2929 35.3852 43.7182 34.3861 42.7557 33.8275L35.0415 29.3512ZM41.3833 36.8074L33.6691 41.2837C33.5281 41.3657 33.4056 41.3292 33.3277 41.2844C33.2472 41.2381 33.1514 41.147 33.1514 40.9763V32.0237C33.1514 31.853 33.2472 31.762 33.3277 31.7156C33.3719 31.6902 33.4303 31.6676 33.4984 31.6676C33.5504 31.6676 33.608 31.6808 33.6691 31.7163L41.3833 36.1926C41.5282 36.2766 41.5586 36.4062 41.5586 36.5C41.5586 36.5939 41.5282 36.7234 41.3833 36.8074Z" fill="white"/>
</svg>
