<svg width="157" height="37" viewBox="0 0 157 37" fill="none" xmlns="http://www.w3.org/2000/svg">
<g clip-path="url(#clip0_0_18)">
<path d="M34.0967 10.715C34.0167 8.77849 33.7234 7.44718 33.3033 6.29359C32.87 5.06908 32.2032 3.97278 31.3297 3.06142C30.4762 2.13587 29.4428 1.41668 28.3093 0.961142C27.2227 0.512554 25.9825 0.199404 24.169 0.114024C22.342 0.0214143 21.762 0 17.1282 0C12.4943 0 11.9143 0.0214143 10.0941 0.106794C8.2806 0.192173 7.03385 0.505601 5.95378 0.953911C4.80678 1.41668 3.78011 2.12864 2.92663 3.06142C2.05987 3.97278 1.38662 5.07631 0.959756 6.28664C0.539658 7.44718 0.246397 8.77126 0.166441 10.7077C0.0797129 12.6587 0.0596586 13.278 0.0596586 18.2261C0.0596586 23.1742 0.0797129 23.7936 0.159669 25.7372C0.239626 27.6737 0.533147 29.005 0.953244 30.1586C1.38662 31.3831 2.05987 32.4794 2.92663 33.3908C3.78011 34.3163 4.81356 35.0355 5.94701 35.4911C7.03385 35.9396 8.27382 36.2528 10.0876 36.3382C11.9075 36.4238 12.4878 36.445 17.1217 36.445C21.7555 36.445 22.3355 36.4238 24.1557 36.3382C25.9692 36.2528 27.216 35.9396 28.296 35.4911C30.5898 34.5441 32.4032 32.6076 33.2901 30.1586C33.7099 28.9981 34.0034 27.6737 34.0834 25.7372C34.1633 23.7936 34.1834 23.1742 34.1834 18.2261C34.1834 13.278 34.1766 12.6587 34.0967 10.715ZM31.0231 25.5949C30.9497 27.3747 30.6697 28.3359 30.4364 28.9767C29.8629 30.5644 28.6828 31.8245 27.1959 32.4369C26.5958 32.6861 25.6892 32.985 24.0289 33.0632C22.2287 33.1488 21.6888 33.17 17.1349 33.17C12.5811 33.17 12.0344 33.1488 10.2407 33.0632C8.57386 32.985 7.67376 32.6861 7.07369 32.4369C6.33377 32.1449 5.66026 31.6821 5.11359 31.0769C4.54686 30.4859 4.11348 29.774 3.84001 28.9839C3.60666 28.3431 3.32668 27.3747 3.25349 25.6021C3.17328 23.6798 3.15348 23.103 3.15348 18.2403C3.15348 13.3776 3.17328 12.7938 3.25349 10.8788C3.32668 9.09887 3.60666 8.13773 3.84001 7.49696C4.11348 6.70658 4.54686 5.98767 5.12036 5.40364C5.67354 4.79848 6.34028 4.33571 7.08047 4.04397C7.68053 3.79479 8.5874 3.49582 10.2475 3.41739C12.0477 3.33201 12.5878 3.3106 17.1414 3.3106C21.7021 3.3106 22.242 3.33201 24.0357 3.41739C25.7025 3.49582 26.6026 3.79479 27.2027 4.04397C27.9426 4.33571 28.6161 4.79848 29.1628 5.40364C29.7295 5.99462 30.1629 6.70658 30.4364 7.49696C30.6697 8.13773 30.9497 9.10582 31.0231 10.8788C31.1031 12.801 31.1232 13.3776 31.1232 18.2403C31.1232 23.103 31.1031 23.6726 31.0231 25.5949Z" fill="white"/>
<path d="M17.1286 8.86371C12.2883 8.86371 8.36101 13.057 8.36101 18.2259C8.36101 23.3949 12.2883 27.5882 17.1286 27.5882C21.9693 27.5882 25.8962 23.3949 25.8962 18.2259C25.8962 13.057 21.9693 8.86371 17.1286 8.86371ZM17.1286 24.299C13.9884 24.299 11.4413 21.5794 11.4413 18.2259C11.4413 14.8725 13.9884 12.1529 17.1286 12.1529C20.2691 12.1529 22.816 14.8725 22.816 18.2259C22.816 21.5794 20.2691 24.299 17.1286 24.299V24.299Z" fill="white"/>
<path d="M28.2899 8.49358C28.2899 9.70057 27.3734 10.6792 26.2428 10.6792C25.1125 10.6792 24.196 9.70057 24.196 8.49358C24.196 7.28631 25.1125 6.30792 26.2428 6.30792C27.3734 6.30792 28.2899 7.28631 28.2899 8.49358V8.49358Z" fill="white"/>
</g>
<path fill-rule="evenodd" clip-rule="evenodd" d="M89.8177 6.08639C86.8242 2.88613 82.8431 1.12292 78.6018 1.12104C69.8624 1.12104 62.7497 8.71588 62.7462 18.0506C62.745 21.0346 63.475 23.9475 64.8626 26.515L62.6132 35.2883L71.0185 32.9339C73.3345 34.2829 75.9419 34.9938 78.5954 34.9947H78.602C87.3405 34.9947 94.454 27.3992 94.4573 18.0641C94.4591 13.54 92.8114 9.28644 89.8177 6.08639ZM78.6018 32.1354H78.5964C76.2317 32.1343 73.9126 31.4557 71.889 30.1738L71.4079 29.8688L66.4201 31.266L67.7514 26.0731L67.438 25.5407C66.1188 23.3001 65.4221 20.7105 65.4233 18.0516C65.426 10.2929 71.338 3.98055 78.6071 3.98055C82.1271 3.9818 85.436 5.44742 87.9241 8.10736C90.4121 10.7673 91.7816 14.3029 91.7804 18.0631C91.7773 25.8224 85.8657 32.1354 78.6018 32.1354V32.1354ZM85.8305 21.596C85.4345 21.3841 83.4866 20.361 83.1233 20.2196C82.7605 20.0784 82.496 20.0081 82.2322 20.4315C81.968 20.8548 81.2088 21.8078 80.9776 22.09C80.7464 22.3724 80.5155 22.4078 80.1193 22.1959C79.723 21.9843 78.4466 21.5374 76.9332 20.0961C75.7556 18.9744 74.9606 17.5891 74.7293 17.1657C74.4985 16.742 74.7274 16.5351 74.9031 16.3024C75.332 15.7337 75.7615 15.1375 75.8935 14.8553C76.0257 14.5729 75.9595 14.3258 75.8603 14.1142C75.7615 13.9025 74.9692 11.8202 74.6391 10.9729C74.3173 10.1483 73.9909 10.2597 73.7476 10.2468C73.5167 10.2345 73.2525 10.232 72.9883 10.232C72.7242 10.232 72.295 10.3377 71.9317 10.7614C71.5687 11.185 70.5453 12.2083 70.5453 14.2906C70.5453 16.3729 71.9649 18.3844 72.163 18.6668C72.361 18.9492 74.9567 23.2222 78.9307 25.0544C79.876 25.4907 80.6138 25.7507 81.1893 25.9457C82.1385 26.2677 83.0019 26.2222 83.6846 26.1134C84.4459 25.9918 86.0283 25.0898 86.3588 24.1018C86.6888 23.1135 86.6888 22.2666 86.5896 22.09C86.4908 21.9136 86.2266 21.8078 85.8305 21.596V21.596Z" fill="white"/>
<path d="M127.8 1.85088C125.454 1.85088 123.92 3.49606 123.92 5.65841C123.92 7.77301 125.408 9.46511 127.71 9.46511H127.755C130.147 9.46511 131.636 7.77301 131.636 5.65841C131.591 3.49606 130.147 1.85088 127.8 1.85088V1.85088Z" fill="white"/>
<path d="M124.325 12.4738H131.184V34.5094H124.325V12.4738Z" fill="white"/>
<path d="M148.02 11.9562C144.32 11.9562 141.838 15.669 141.838 15.669V12.4734H134.979V34.509H141.838V22.2034C141.838 21.5447 141.883 20.8869 142.064 20.4158C142.56 19.1004 143.688 17.7376 145.583 17.7376C148.065 17.7376 149.058 19.7583 149.058 22.7206V34.509H155.917V21.8742C155.917 15.1058 152.532 11.9562 148.02 11.9562V11.9562Z" fill="white"/>
<defs>
<clipPath id="clip0_0_18">
<rect width="34.0798" height="36.3911" fill="white" transform="scale(1.00148)"/>
</clipPath>
</defs>
</svg>
