<svg width="16" height="16" viewBox="0 0 16 16" fill="none" xmlns="http://www.w3.org/2000/svg">
<g clip-path="url(#clip0_0_325)">
<path d="M15.7821 7.47396L11.0208 2.71263C10.7303 2.42213 10.2591 2.42213 9.96863 2.71263C9.67807 3.00319 9.67807 3.4742 9.96863 3.76476L13.4599 7.25607H0.743959C0.333115 7.25607 0 7.58919 0 8.00003C0 8.41082 0.333115 8.74399 0.743959 8.74399H13.4599L9.96875 12.2353C9.67819 12.5259 9.67819 12.9969 9.96875 13.2874C10.114 13.4326 10.3044 13.5053 10.4948 13.5053C10.6852 13.5053 10.8756 13.4326 11.0209 13.2874L15.7821 8.5261C16.0727 8.23554 16.0727 7.76453 15.7821 7.47396Z" fill="#00006D"/>
</g>
<defs>
<clipPath id="clip0_0_325">
<rect width="16" height="16" fill="white"/>
</clipPath>
</defs>
</svg>
