<svg width="1031" height="201" viewBox="0 0 1031 201" fill="none" xmlns="http://www.w3.org/2000/svg">
<g clip-path="url(#clip0_80_0)">
<path d="M52.4765 29.1887C52.3529 28.7271 51.8784 28.4528 51.4164 28.5766C50.9543 28.7004 50.6811 29.175 50.8048 29.6366C52.2947 35.1973 49.7256 40.933 44.6726 43.5332L43.9881 40.9784C48.0107 38.704 50.1586 33.9142 48.9085 29.2486L45.5486 16.7095C44.0665 11.1781 38.361 7.88359 32.8295 9.36574C27.2976 10.848 24.0037 16.5539 25.4859 22.0853L28.8457 34.6244C30.0958 39.2901 34.3514 42.364 38.9723 42.3224L39.6568 44.8772C33.9798 45.152 28.8882 41.4701 27.3978 35.908C27.2741 35.4464 26.7998 35.1726 26.3378 35.2964C25.8757 35.4202 25.6024 35.8943 25.726 36.3559C27.4621 42.835 33.4748 47.0807 40.1135 46.5815L40.6253 48.4915L37.2812 49.3875C34.9771 50.0049 33.604 52.3825 34.2215 54.6872C34.3452 55.1487 34.8195 55.4226 35.2815 55.2988L53.6725 50.3709C54.1346 50.2471 54.408 49.7729 54.2843 49.3113C53.6667 47.0067 51.2893 45.6341 48.9846 46.2516L45.6411 47.1475L45.1292 45.237C51.1276 42.3501 54.2121 35.6658 52.4765 29.1887V29.1887ZM30.7836 35.0013L34.9217 33.8925C35.3837 33.7687 35.6574 33.2939 35.5338 32.8323C35.4101 32.3707 34.9358 32.0969 34.4737 32.2207L30.294 33.3407L29.622 30.8327L33.8017 29.7128C34.2638 29.589 34.5375 29.1142 34.4138 28.6526C34.2901 28.191 33.8157 27.9167 33.3536 28.0405L29.174 29.1605L28.5021 26.6531L32.6818 25.5331C33.1439 25.4093 33.4176 24.9345 33.2939 24.473C33.1702 24.0114 32.6958 23.7371 32.2337 23.8609L28.054 24.9808L27.382 22.4729L31.5617 21.353C32.0238 21.2291 32.2976 20.7549 32.1739 20.2933C32.0502 19.8317 31.5758 19.5574 31.1138 19.6812L26.9757 20.79C26.2663 16.4588 28.9506 12.1974 33.2776 11.038C37.6046 9.87858 42.0599 12.2269 43.6112 16.3325L39.4731 17.4413C39.0111 17.5651 38.7374 18.0399 38.861 18.5015C38.9847 18.9631 39.459 19.2369 39.9211 19.1131L44.1008 17.9931L44.7728 20.501L40.5931 21.621C40.131 21.7448 39.8573 22.2196 39.981 22.6811C40.1047 23.1427 40.5791 23.417 41.0412 23.2932L45.2208 22.1733L45.8927 24.6807L41.713 25.8007C41.2509 25.9245 40.9772 26.3992 41.1009 26.8608C41.2246 27.3224 41.699 27.5967 42.1611 27.4729L46.3408 26.353L47.0128 28.8609L42.8331 29.9808C42.371 30.1046 42.0972 30.5789 42.2209 31.0405C42.3446 31.5021 42.819 31.7764 43.281 31.6526L47.4191 30.5438C48.0445 34.3608 46.0326 38.1215 42.5846 39.7549L42.5832 39.7553C42.1187 39.9751 41.6305 40.1583 41.1172 40.2958C36.7902 41.4552 32.3349 39.1069 30.7836 35.0013ZM49.4326 47.9234C50.5227 47.6313 51.6394 48.0811 52.2456 48.962L35.8124 53.3652C35.8969 52.2993 36.6395 51.3513 37.7292 51.0593L41.9089 49.9394C42.3709 49.8155 42.6448 49.3413 42.5211 48.8797L40.719 42.1543C41.0007 42.1034 41.2831 42.0437 41.5648 41.9682C41.8465 41.8927 42.121 41.8033 42.3908 41.7063L44.1929 48.4317C44.3165 48.8933 44.7908 49.1671 45.2529 49.0433L49.4326 47.9234Z" fill="#7737FF"/>
<path d="M40.8569 7.32304C41.6328 7.34278 42.3574 7.59618 42.9537 8.05571C43.5559 8.51982 43.9883 9.16325 44.2024 9.91642C44.3321 10.3718 44.8032 10.6377 45.2591 10.5156L45.272 10.5121C45.7312 10.3814 45.9981 9.90231 45.8672 9.44264C45.5507 8.33034 44.9087 7.37704 44.0112 6.68498C43.1216 5.99951 42.0453 5.62193 40.901 5.59325C40.4241 5.58158 40.027 5.9592 40.0139 6.43642C40.0019 6.91387 40.3795 7.31101 40.8569 7.32304Z" fill="#7737FF"/>
<path d="M46.1315 3.93177C44.5419 2.70792 42.5607 2.06063 40.5532 2.10894C40.0764 2.12237 39.6977 2.51709 39.7095 2.99535C39.7211 3.47312 40.1182 3.85119 40.5955 3.83968C42.2315 3.79966 43.78 4.30551 45.0747 5.30285C46.2892 6.2386 47.149 7.52062 47.5624 9.00991C47.6893 9.46808 48.1613 9.73738 48.6201 9.61447L48.6272 9.61255C49.0878 9.48504 49.3579 9.00817 49.2302 8.54713C48.7163 6.69411 47.6447 5.09817 46.1315 3.93177Z" fill="#7737FF"/>
<path d="M14.7521 9.99224L12.9491 13.1172C12.7099 13.5309 12.8517 14.0604 13.2658 14.2991C13.4727 14.4185 13.7084 14.443 13.9222 14.3858C14.136 14.3285 14.3284 14.1892 14.4478 13.9824L16.2512 10.8574C16.4901 10.4437 16.3482 9.91422 15.9345 9.67541C15.5204 9.43672 14.9914 9.57848 14.7521 9.99224Z" fill="#7737FF"/>
<path d="M11.1444 16.2415L9.34052 19.3667C9.10122 19.7805 9.24298 20.3095 9.65722 20.5487C9.86404 20.6681 10.0998 20.6926 10.3136 20.6353C10.5274 20.578 10.7198 20.4388 10.8392 20.232L12.6431 17.1068C12.8824 16.693 12.7406 16.164 12.3264 15.9248C11.9128 15.686 11.3837 15.8278 11.1444 16.2415Z" fill="#7737FF"/>
<path d="M8.54122 11.6564C8.12759 11.4176 7.59807 11.5595 7.35926 11.9731C7.12009 12.3873 7.26185 12.9164 7.67596 13.1551L10.8008 14.9596C11.0081 15.0789 11.2438 15.1034 11.4576 15.0461C11.6715 14.9888 11.8634 14.8497 11.9828 14.6429C12.2219 14.2287 12.0802 13.6996 11.6661 13.4609L8.54122 11.6564Z" fill="#7737FF"/>
<path d="M14.7914 15.2644C14.3773 15.0257 13.8483 15.1674 13.6095 15.5811C13.3702 15.9948 13.5121 16.5244 13.9262 16.763L17.0501 18.5678C17.2574 18.6871 17.4931 18.7116 17.7069 18.6543C17.9207 18.597 18.1126 18.4579 18.2325 18.251C18.4713 17.8374 18.3294 17.3078 17.9158 17.069L14.7914 15.2644Z" fill="#7737FF"/>
<path d="M11.455 36.5962C9.61056 37.0904 8.51292 38.9923 9.00702 40.8363C9.50098 42.6798 11.4025 43.7781 13.247 43.2838C15.0909 42.7897 16.1886 40.8879 15.6946 39.0444C15.2005 37.2004 13.299 36.1021 11.455 36.5962ZM12.799 41.6121C11.8773 41.859 10.9258 41.3101 10.6788 40.3883C10.4317 39.4661 10.9813 38.5155 11.9031 38.2685C12.8244 38.0216 13.7757 38.5701 14.0228 39.4923C14.2698 40.4141 13.7203 41.3652 12.799 41.6121Z" fill="#7737FF"/>
<path d="M18.971 27.8628C19.1566 28.5554 18.7455 29.2675 18.0529 29.453C17.3602 29.6386 16.6487 29.2274 16.4631 28.5348C16.2775 27.8422 16.6882 27.1307 17.3809 26.9451C18.0735 26.7595 18.7854 27.1702 18.971 27.8628Z" fill="#7737FF"/>
</g>
<g clip-path="url(#clip1_80_0)">
<path d="M986.686 148.274L988.196 148.678L987.792 150.189L986.281 149.784L986.686 148.274Z" fill="#7737FF"/>
<path d="M989.707 149.083L991.217 149.488L990.812 150.998L989.302 150.593L989.707 149.083Z" fill="#7737FF"/>
<path d="M992.728 149.892L994.238 150.297L993.833 151.807L992.323 151.403L992.728 149.892Z" fill="#7737FF"/>
<path d="M994.48 158.456L985.418 156.028C985.217 155.974 985.004 156.002 984.824 156.106C984.645 156.21 984.514 156.38 984.46 156.581L982.437 164.133C982.383 164.333 982.411 164.546 982.515 164.726C982.618 164.905 982.789 165.036 982.989 165.09L992.052 167.518C992.252 167.572 992.465 167.544 992.645 167.44C992.825 167.337 992.956 167.166 993.009 166.965L995.033 159.414C995.086 159.213 995.058 159 994.955 158.82C994.851 158.641 994.68 158.51 994.48 158.456ZM991.701 165.806L984.149 163.782L985.768 157.741L993.32 159.764L991.701 165.806Z" fill="#7737FF"/>
<path d="M998.256 159.468L1001.28 160.277L1000.87 161.788L997.851 160.978L998.256 159.468Z" fill="#7737FF"/>
<path d="M1002.79 160.682L1014.87 163.92L1014.47 165.43L1002.38 162.192L1002.79 160.682Z" fill="#7737FF"/>
<path d="M997.446 162.489L1014.06 166.94L1013.66 168.451L997.042 163.999L997.446 162.489Z" fill="#7737FF"/>
<path d="M996.637 165.509L1004.19 167.533L1003.78 169.043L996.232 167.02L996.637 165.509Z" fill="#7737FF"/>
<path d="M1005.7 167.938L1010.23 169.152L1009.83 170.662L1005.29 169.448L1005.7 167.938Z" fill="#7737FF"/>
<path d="M981.425 167.908L991.997 170.741L991.593 172.252L981.02 169.419L981.425 167.908Z" fill="#7737FF"/>
<path d="M980.615 170.929L991.188 173.762L990.783 175.273L980.21 172.44L980.615 170.929Z" fill="#7737FF"/>
<path d="M979.806 173.95L990.379 176.783L989.974 178.293L979.401 175.46L979.806 173.95Z" fill="#7737FF"/>
<path d="M978.997 176.971L989.569 179.804L989.165 181.314L978.592 178.481L978.997 176.971Z" fill="#7737FF"/>
<path d="M1023.36 165.459C1022.88 164.967 1022.27 164.614 1021.61 164.439C1020.94 164.263 1020.24 164.272 1019.58 164.464L1021.63 156.827C1021.79 156.226 1021.7 155.586 1021.39 155.047C1021.08 154.508 1020.57 154.115 1019.97 153.954L985.23 144.646C984.629 144.485 983.988 144.569 983.45 144.88C982.911 145.191 982.518 145.703 982.357 146.304L973.049 181.043C972.888 181.644 972.972 182.284 973.283 182.823C973.594 183.361 974.106 183.755 974.707 183.916L1009.45 193.224C1010.05 193.385 1010.69 193.3 1011.23 192.989C1011.76 192.678 1012.16 192.166 1012.32 191.565L1015.81 178.539L1023.36 170.987C1024.09 170.254 1024.5 169.26 1024.5 168.223C1024.5 167.187 1024.09 166.193 1023.36 165.459V165.459ZM1002.29 183.212L994.1 181.018L996.124 173.466L1006.93 176.361L1004.01 179.28C1003.9 179.389 1003.83 179.528 1003.8 179.679L1003.29 182.214L1002.29 183.212ZM1002.91 184.808L1004.01 183.703L1005.12 184.808L1004.01 185.914C1003.86 186.059 1003.67 186.14 1003.46 186.139C1003.25 186.139 1003.06 186.056 1002.91 185.91C1002.76 185.764 1002.68 185.567 1002.68 185.36C1002.68 185.154 1002.76 184.955 1002.91 184.808ZM1006.48 183.959L1004.86 182.34L1005.23 180.496L1008.32 183.591L1006.48 183.959ZM1009.54 182.594L1008.43 181.488L1016.73 173.196L1015.62 172.09L1007.33 180.383L1006.22 179.277L1015.62 169.879L1018.94 173.197L1009.54 182.594ZM1016.72 168.773L1017.28 168.221L1020.6 171.538L1020.04 172.091L1016.72 168.773ZM984.825 146.156L1019.56 155.464C1019.76 155.518 1019.93 155.649 1020.04 155.829C1020.14 156.008 1020.17 156.222 1020.12 156.422L1019.1 160.222L982.849 150.509L983.867 146.709C983.921 146.509 984.052 146.338 984.232 146.234C984.411 146.131 984.625 146.103 984.825 146.156V146.156ZM1010.81 191.161C1010.75 191.361 1010.62 191.532 1010.44 191.635C1010.26 191.739 1010.05 191.767 1009.85 191.713L975.112 182.405C974.912 182.352 974.741 182.221 974.637 182.041C974.534 181.861 974.505 181.648 974.559 181.448L982.444 152.019L1018.69 161.732L1017.64 165.647L1008.21 175.085L995.773 171.753C995.573 171.7 995.359 171.728 995.18 171.831C995 171.935 994.869 172.106 994.816 172.306L992.387 181.368C992.334 181.569 992.362 181.782 992.465 181.962C992.569 182.141 992.74 182.272 992.94 182.326L1001.26 184.556C1001.08 185.056 1001.08 185.604 1001.25 186.108C1001.42 186.612 1001.76 187.043 1002.2 187.33C1002.65 187.617 1003.19 187.742 1003.72 187.686C1004.25 187.63 1004.74 187.395 1005.12 187.02L1006.61 185.529L1009.14 185.022C1009.29 184.991 1009.43 184.916 1009.54 184.806L1013.6 180.75L1010.81 191.161ZM1022.26 169.882L1021.7 170.435L1018.38 167.117L1018.94 166.564C1019.38 166.124 1019.97 165.876 1020.6 165.876C1021.22 165.876 1021.82 166.123 1022.26 166.563C1022.7 167.003 1022.94 167.6 1022.94 168.222C1022.94 168.845 1022.7 169.442 1022.26 169.882V169.882Z" fill="#7737FF"/>
</g>
<defs>
<clipPath id="clip0_80_0">
<rect width="50" height="50" fill="white" transform="translate(0 12.9505) scale(1.00074) rotate(-15)"/>
</clipPath>
<clipPath id="clip1_80_0">
<rect width="50" height="50" fill="white" transform="translate(982.668 139.103) scale(1.00074) rotate(15)"/>
</clipPath>
</defs>
</svg>
