<svg width="5" height="8" viewBox="0 0 5 8" fill="none" xmlns="http://www.w3.org/2000/svg">
<path fill-rule="evenodd" clip-rule="evenodd" d="M4.99891 5.72284C4.98844 6.76936 3.87406 7.61562 2.5 7.61562C1.12578 7.61562 0.0115625 6.76936 0.0009375 5.72284H0V2.38492V1.90753V1.43074C0 0.640406 0.839375 0 1.875 0C2.91047 0 3.75 0.640406 3.75 1.43074V1.90753V2.38492V4.05745V4.65835V5.72284H3.74797C3.73734 6.24271 3.18359 6.66168 2.5 6.66168C1.81625 6.66168 1.26266 6.24271 1.25203 5.72284H1.25V5.24605V4.65835V4.05745V3.33839V2.77831V2.23738V1.90753H1.875V2.36981V2.86136V3.86267V4.37789V4.8867V5.24605V5.72284C1.875 5.98617 2.15484 6.19964 2.5 6.19964C2.84516 6.19964 3.125 5.98617 3.125 5.72284V4.8867V4.37789V3.86267V3.33839V2.49523V2.38492V1.90753V1.43074H3.12359C3.12375 1.42586 3.125 1.42098 3.125 1.41599C3.125 0.888977 2.56531 0.46204 1.875 0.46204C1.18453 0.46204 0.625 0.888977 0.625 1.41599C0.625 1.42098 0.62625 1.42586 0.626406 1.43074H0.625V1.90753V2.38492V2.49523V3.33839V4.44893V5.72284C0.625 6.51318 1.46438 7.15358 2.5 7.15358C3.53547 7.15358 4.375 6.51318 4.375 5.72284V4.44893V1.43074V0.953946H5V1.43074V5.72284H4.99891Z" fill="#4DA1FF"/>
</svg>
