<svg width="76" height="76" viewBox="0 0 76 76" fill="none" xmlns="http://www.w3.org/2000/svg">
<circle cx="38" cy="38" r="38" fill="#EFEBFF"/>
<g clip-path="url(#clip0_52_94)">
<path d="M43.8933 61.5352H36.6667C36.2622 61.5352 35.9343 61.863 35.9343 62.2676C35.9343 62.6722 36.2622 63 36.6667 63H43.8933C45.5683 63 46.9311 61.6373 46.9311 59.9623C46.9311 58.2873 45.5683 56.9245 43.8933 56.9245H40.8424V51.4979C47.4599 50.1737 52.4612 44.3193 52.4612 37.3181C52.4612 36.1065 51.4756 35.1208 50.264 35.1208C49.0523 35.1208 48.0667 36.1065 48.0667 37.3181C48.0667 41.882 45.0134 45.7457 40.8424 46.9754V44.4348C44.6853 43.2245 47.4799 39.6278 47.4799 35.3905C47.4799 34.0681 47.4799 24.0251 47.4799 22.4798C47.4799 20.7185 46.9932 18.9987 46.0723 17.5069C45.8598 17.1629 45.4086 17.0559 45.0643 17.2685C44.7201 17.481 44.6133 17.9322 44.8257 18.2764C45.5304 19.418 45.933 20.7181 46.0028 22.0597H41.3315C40.254 22.0597 39.3774 22.9363 39.3774 24.0138C39.3774 25.0913 40.2541 25.968 41.3315 25.968H46.0149V26.9811H41.3315C40.254 26.9811 39.3774 27.8577 39.3774 28.9352C39.3774 30.0127 40.2541 30.8894 41.3315 30.8894H46.0149V31.9024H41.3315C40.254 31.9024 39.3774 32.7791 39.3774 33.8565C39.3774 34.9341 40.2541 35.8107 41.3315 35.8107H46.0039C45.8119 39.5107 43.0979 42.5491 39.5748 43.2493C34.7565 44.2134 30.2474 40.6497 29.9962 35.8107H34.6686C35.7461 35.8107 36.6227 34.9341 36.6227 33.8565C36.6227 32.7791 35.746 31.9024 34.6686 31.9024H29.9852V30.8894H34.6686C35.7461 30.8894 36.6227 30.0127 36.6227 28.9352C36.6227 27.8577 35.746 26.9811 34.6686 26.9811H29.9852V25.968H34.6686C35.7461 25.968 36.6227 25.0913 36.6227 24.0138C36.6227 22.9363 35.746 22.0597 34.6686 22.0597H29.9962C30.2156 17.8348 33.7217 14.4648 38.0002 14.4648C39.7063 14.4648 41.3347 14.9935 42.7096 15.9935C43.0367 16.2314 43.4947 16.159 43.7327 15.832C43.9707 15.5048 43.8983 15.0468 43.5712 14.8088C41.9443 13.6255 40.0179 13 38.0002 13C32.773 13 28.5204 17.2526 28.5204 22.4797V35.3904C28.5204 39.6277 31.315 43.2243 35.1579 44.4347V46.9753C30.9869 45.7456 27.9336 41.8819 27.9336 37.318C27.9336 36.1064 26.9479 35.1207 25.7363 35.1207C24.5247 35.1207 23.5391 36.1064 23.5391 37.318C23.5391 44.3192 28.5404 50.1736 35.1579 51.4979V56.9244H32.107C30.432 56.9244 29.0692 58.2872 29.0692 59.9622C29.0692 61.6372 30.432 63 32.1071 63H33.2487C33.6532 63 33.9812 62.6722 33.9812 62.2676C33.9812 61.863 33.6532 61.5352 33.2487 61.5352H32.1071C31.2398 61.5352 30.5342 60.8295 30.5342 59.9623C30.5342 59.0949 31.2398 58.3894 32.1071 58.3894H43.8933C44.7605 58.3894 45.4662 59.095 45.4662 59.9623C45.4662 60.8295 44.7606 61.5352 43.8933 61.5352V61.5352ZM41.3317 24.503C41.0619 24.503 40.8425 24.2835 40.8425 24.0137C40.8425 23.7438 41.062 23.5244 41.3317 23.5244H46.0151V24.503H41.3317ZM41.3317 29.4244C41.0619 29.4244 40.8425 29.2049 40.8425 28.9351C40.8425 28.6652 41.062 28.4458 41.3317 28.4458H46.0151V29.4244H41.3317ZM40.8424 33.8563C40.8424 33.5865 41.0619 33.3671 41.3316 33.3671H46.015V34.3457H41.3316C41.0619 34.3457 40.8424 34.1262 40.8424 33.8563V33.8563ZM34.6687 33.3672C34.9385 33.3672 35.1579 33.5866 35.1579 33.8564C35.1579 34.1263 34.9384 34.3458 34.6687 34.3458H29.9853V33.3672H34.6687ZM34.6687 28.4458C34.9385 28.4458 35.1579 28.6652 35.1579 28.9351C35.1579 29.2049 34.9384 29.4244 34.6687 29.4244H29.9853V28.4458H34.6687ZM35.158 24.0137C35.158 24.2835 34.9385 24.503 34.6688 24.503H29.9854V23.5244H34.6688C34.9385 23.5245 35.158 23.7439 35.158 24.0137ZM36.6229 44.7702C37.085 44.8378 37.5678 44.8701 38.0002 44.8701C38.4723 44.8701 38.9495 44.8327 39.3775 44.7702V47.2898C38.4635 47.4149 37.5377 47.4147 36.6343 47.2915C36.6305 47.291 36.6267 47.2904 36.6228 47.2898V44.7702H36.6229ZM25.0039 37.3181C25.0039 36.9142 25.3324 36.5856 25.7363 36.5856C26.1401 36.5856 26.4688 36.9142 26.4688 37.3181C26.4688 43.8014 31.8328 49.0063 38.2877 48.8458C44.4775 48.6935 49.5315 43.6154 49.5315 37.3181C49.5315 36.9142 49.8602 36.5856 50.264 36.5856C50.6679 36.5856 50.9964 36.9142 50.9964 37.3181C50.9964 43.805 46.219 49.1969 39.9979 50.1607C32.1162 51.3814 25.0039 45.2686 25.0039 37.3181V37.3181ZM36.6229 51.7137C37.0357 51.7528 37.537 51.7791 38.0002 51.7791C38.4581 51.7791 38.9549 51.7538 39.3775 51.7137V56.9244H36.6228V51.7137H36.6229Z" fill="#7737FF"/>
</g>
<defs>
<clipPath id="clip0_52_94">
<rect width="50" height="50" fill="white" transform="translate(13 13)"/>
</clipPath>
</defs>
</svg>
