<svg width="178" height="178" viewBox="0 0 178 178" fill="none" xmlns="http://www.w3.org/2000/svg">
<g filter="url(#filter0_d_52_221)">
<circle cx="88.9999" cy="88.9999" r="38.7146" transform="rotate(-30 88.9999 88.9999)" fill="#FB5392"/>
</g>
<g clip-path="url(#clip0_52_221)">
<path d="M91.7684 77.8586L83.1173 82.8532C82.3549 83.2935 82.0936 84.2682 82.5339 85.0308C82.9741 85.7933 83.9489 86.0545 84.7114 85.6142L93.3625 80.6196C94.1254 80.1791 94.3862 79.2046 93.9459 78.442C93.5056 77.6795 92.5309 77.4183 91.7684 77.8586Z" fill="white"/>
<path d="M98.9339 82.618L86.9698 89.5255C86.2073 89.9657 85.946 90.9405 86.3863 91.703C86.8265 92.4655 87.8013 92.7268 88.5638 92.2865L100.528 85.379C101.29 84.9388 101.552 83.964 101.111 83.2014C100.671 82.4389 99.6964 82.1778 98.9339 82.618Z" fill="white"/>
<path d="M96.3453 63.6818L71.9107 77.7891C71.1483 78.2293 70.887 79.2041 71.3273 79.9666L78.8458 92.9891L76.407 94.3972C73.5398 96.0526 72.5542 99.7323 74.2093 102.599L78.6461 110.284C80.3015 113.151 83.9807 114.137 86.848 112.481C87.0827 112.346 87.3047 112.197 87.5131 112.036L110.29 98.8861C113.689 96.9233 114.859 92.56 112.896 89.16L98.5228 64.2653C98.0825 63.5027 97.1078 63.2415 96.3453 63.6818ZM86.2848 105.874C86.9678 107.057 86.6918 108.535 85.6995 109.402L85.2275 109.674L85.254 109.72C83.9089 110.497 82.1834 110.034 81.4071 108.69L76.9704 101.005C76.1941 99.6604 76.6566 97.9344 78.0011 97.1581L80.44 95.75L86.2848 105.874L86.2848 105.874ZM110.135 90.7539C111.2 92.5997 110.542 95.0592 108.696 96.1251L89.8432 107.009C89.8028 106.078 89.5435 105.142 89.0457 104.28L74.8853 79.753L96.5589 67.2397L110.135 90.7539Z" fill="white"/>
<path d="M99.2346 90.7896L90.5835 95.7843C89.8211 96.2245 89.5598 97.1993 90.0001 97.9618C90.4403 98.7243 91.4151 98.9856 92.1776 98.5453L100.829 93.5506C101.592 93.1101 101.852 92.1356 101.412 91.3731C100.972 90.6106 99.9971 90.3494 99.2346 90.7896Z" fill="white"/>
</g>
<defs>
<filter id="filter0_d_52_221" x="0" y="0" width="178" height="178" filterUnits="userSpaceOnUse" color-interpolation-filters="sRGB">
<feFlood flood-opacity="0" result="BackgroundImageFix"/>
<feColorMatrix in="SourceAlpha" type="matrix" values="0 0 0 0 0 0 0 0 0 0 0 0 0 0 0 0 0 0 127 0" result="hardAlpha"/>
<feOffset/>
<feGaussianBlur stdDeviation="25"/>
<feColorMatrix type="matrix" values="0 0 0 0 0.984314 0 0 0 0 0.32549 0 0 0 0 0.572549 0 0 0 0.5 0"/>
<feBlend mode="normal" in2="BackgroundImageFix" result="effect1_dropShadow_52_221"/>
<feBlend mode="normal" in="SourceGraphic" in2="effect1_dropShadow_52_221" result="shape"/>
</filter>
<clipPath id="clip0_52_221">
<rect width="40" height="40" fill="white" transform="translate(62.214 81.8228) scale(1.00557) rotate(-30)"/>
</clipPath>
</defs>
</svg>
