<svg width="55" height="55" viewBox="0 0 55 55" fill="none" xmlns="http://www.w3.org/2000/svg">
<circle cx="27.5" cy="27.5" r="27.5" fill="#FAEEEC"/>
<g clip-path="url(#clip0_0_65)">
<path d="M13.659 23.4309L25.296 30.7808L32.6459 42.4174C32.8769 42.7833 33.2776 43 33.7028 43C33.7595 43 33.8178 42.9964 33.8752 42.9881C34.3607 42.9207 34.7627 42.5752 34.9022 42.1043L43.0275 14.6029C43.0431 14.5492 43.0495 14.4949 43.0581 14.4412C43.0611 14.4226 43.0663 14.4055 43.0688 14.3869C43.0825 14.2663 43.0758 14.1479 43.055 14.0319C43.0514 14.0093 43.0462 13.9874 43.0407 13.9648C43.0126 13.8455 42.9699 13.731 42.9094 13.6254C42.9064 13.6205 42.9064 13.615 42.903 13.6098C42.8792 13.5705 42.8511 13.5354 42.8237 13.4994C42.8106 13.4817 42.7999 13.463 42.7855 13.4463C42.737 13.388 42.6842 13.3355 42.6274 13.2879C42.6131 13.276 42.5975 13.2674 42.5826 13.2561C42.5362 13.221 42.4886 13.1881 42.4382 13.16C42.4163 13.1475 42.3931 13.1374 42.3699 13.1267C42.3207 13.1029 42.2707 13.0825 42.2194 13.0648C42.2069 13.0605 42.1956 13.0535 42.1825 13.0498C42.1706 13.0462 42.1587 13.0462 42.1474 13.0431C42.0924 13.0285 42.0369 13.0187 41.9804 13.0111C41.9588 13.0086 41.9368 13.0043 41.9148 13.0022C41.8474 12.9985 41.7793 12.9992 41.7113 13.0062C41.703 13.0068 41.6942 13.0062 41.6856 13.0068C41.6148 13.0147 41.5437 13.0294 41.4738 13.0498L13.9725 21.1752C13.5016 21.3147 13.1561 21.716 13.0886 22.2022C13.0209 22.6877 13.2443 23.1684 13.659 23.4309V23.4309ZM37.4685 16.84L32.1939 22.1152C31.7056 22.6035 31.7056 23.3949 32.1939 23.8829C32.6813 24.3712 33.4739 24.3712 33.9616 23.8829L39.2368 18.6076L33.2859 38.7493L27.7924 30.052L30.2114 27.6331C30.6994 27.1451 30.6994 26.3537 30.2114 25.8654C29.7237 25.3774 28.9311 25.3774 28.4437 25.8654L26.0248 28.2837L17.3274 22.7909L37.4685 16.84Z" fill="#FB5392"/>
</g>
<defs>
<clipPath id="clip0_0_65">
<rect width="30" height="30" fill="white" transform="translate(13 13)"/>
</clipPath>
</defs>
</svg>
