<svg width="120" height="24" viewBox="0 0 120 24" fill="none" xmlns="http://www.w3.org/2000/svg">
<path d="M12.0003 17.5195L16.1503 20.0295C16.9103 20.4895 17.8403 19.8095 17.6403 18.9495L16.5403 14.2295L20.2103 11.0495C20.8803 10.4695 20.5203 9.36952 19.6403 9.29952L14.8103 8.88952L12.9203 4.42952C12.5803 3.61952 11.4203 3.61952 11.0803 4.42952L9.19032 8.87952L4.36032 9.28952C3.48032 9.35952 3.12032 10.4595 3.79032 11.0395L7.46032 14.2195L6.36032 18.9395C6.16032 19.7995 7.09032 20.4795 7.85032 20.0195L12.0003 17.5195V17.5195Z" fill="#5A4FF3"/>
<path d="M84.0003 17.5195L88.1503 20.0295C88.9103 20.4895 89.8403 19.8095 89.6403 18.9495L88.5403 14.2295L92.2103 11.0495C92.8803 10.4695 92.5203 9.36952 91.6403 9.29952L86.8103 8.88952L84.9203 4.42952C84.5803 3.61952 83.4203 3.61952 83.0803 4.42952L81.1903 8.87952L76.3603 9.28952C75.4803 9.35952 75.1203 10.4595 75.7903 11.0395L79.4603 14.2195L78.3603 18.9395C78.1603 19.7995 79.0903 20.4795 79.8503 20.0195L84.0003 17.5195V17.5195Z" fill="#5A4FF3"/>
<path d="M60.0003 17.5195L64.1503 20.0295C64.9103 20.4895 65.8403 19.8095 65.6403 18.9495L64.5403 14.2295L68.2103 11.0495C68.8803 10.4695 68.5203 9.36952 67.6403 9.29952L62.8103 8.88952L60.9203 4.42952C60.5803 3.61952 59.4203 3.61952 59.0803 4.42952L57.1903 8.87952L52.3603 9.28952C51.4803 9.35952 51.1203 10.4595 51.7903 11.0395L55.4603 14.2195L54.3603 18.9395C54.1603 19.7995 55.0903 20.4795 55.8503 20.0195L60.0003 17.5195V17.5195Z" fill="#5A4FF3"/>
<path d="M36.0003 17.5195L40.1503 20.0295C40.9103 20.4895 41.8403 19.8095 41.6403 18.9495L40.5403 14.2295L44.2103 11.0495C44.8803 10.4695 44.5203 9.36952 43.6403 9.29952L38.8103 8.88952L36.9203 4.42952C36.5803 3.61952 35.4203 3.61952 35.0803 4.42952L33.1903 8.87952L28.3603 9.28952C27.4803 9.35952 27.1203 10.4595 27.7903 11.0395L31.4603 14.2195L30.3603 18.9395C30.1603 19.7995 31.0903 20.4795 31.8503 20.0195L36.0003 17.5195V17.5195Z" fill="#5A4FF3"/>
<path d="M108 17.5195L112.15 20.0295C112.91 20.4895 113.84 19.8095 113.64 18.9495L112.54 14.2295L116.21 11.0495C116.88 10.4695 116.52 9.36952 115.64 9.29952L110.81 8.88952L108.92 4.42952C108.58 3.61952 107.42 3.61952 107.08 4.42952L105.19 8.87952L100.36 9.28952C99.4803 9.35952 99.1203 10.4595 99.7903 11.0395L103.46 14.2195L102.36 18.9395C102.16 19.7995 103.09 20.4795 103.85 20.0195L108 17.5195V17.5195Z" fill="#5A4FF3"/>
</svg>
