<svg width="22" height="23" viewBox="0 0 22 23" fill="none" xmlns="http://www.w3.org/2000/svg">
<g opacity="0.74">
<rect x="0.502341" y="0.502341" width="20.9952" height="21.231" rx="2" fill="white" stroke="#4DA1FF" stroke-opacity="0.7"/>
<path fill-rule="evenodd" clip-rule="evenodd" d="M7.2334 10.7585L13.6911 13.5602L14.4232 7.31022L7.2334 10.7585ZM13.8436 13.9952C13.8182 13.9952 13.793 13.99 13.7694 13.9799L6.7331 10.9272C6.66902 10.8994 6.62709 10.8379 6.62564 10.7698C6.62437 10.7017 6.66376 10.6388 6.72675 10.6085L14.5608 6.85163C14.6202 6.82311 14.6912 6.82821 14.7456 6.86536C14.8001 6.90233 14.8291 6.96517 14.8217 7.02925L14.0239 13.8391C14.0173 13.8947 13.9838 13.9444 13.9335 13.972C13.9057 13.9875 13.8747 13.9952 13.8436 13.9952Z" fill="#4DA1FF"/>
<path d="M7.2334 10.7585L7.16823 10.6226L6.87059 10.7654L7.17342 10.8968L7.2334 10.7585ZM13.6911 13.5602L13.6312 13.6985L13.8172 13.7792L13.8408 13.5778L13.6911 13.5602ZM14.4232 7.31022L14.5729 7.32775L14.6048 7.05603L14.3581 7.17433L14.4232 7.31022ZM13.7694 13.9799L13.7094 14.1182L13.7104 14.1186L13.7694 13.9799ZM6.7331 10.9272L6.6731 11.0654L6.67312 11.0654L6.7331 10.9272ZM6.62564 10.7698L6.47496 10.7726L6.47497 10.773L6.62564 10.7698ZM6.72675 10.6085L6.66158 10.4727L6.66146 10.4727L6.72675 10.6085ZM14.5608 6.85163L14.626 6.98751L14.6261 6.98747L14.5608 6.85163ZM14.7456 6.86536L14.6607 6.98986L14.661 6.99005L14.7456 6.86536ZM14.8217 7.02925L14.9714 7.04679L14.9714 7.04664L14.8217 7.02925ZM14.0239 13.8391L14.1735 13.8567L14.1736 13.8566L14.0239 13.8391ZM13.9335 13.972L13.8609 13.8399L13.8601 13.8404L13.9335 13.972ZM7.17342 10.8968L13.6312 13.6985L13.7511 13.422L7.29338 10.6203L7.17342 10.8968ZM13.8408 13.5778L14.5729 7.32775L14.2736 7.29268L13.5415 13.5427L13.8408 13.5778ZM14.3581 7.17433L7.16823 10.6226L7.29857 10.8944L14.4884 7.4461L14.3581 7.17433ZM13.8436 13.8445C13.8391 13.8445 13.8339 13.8436 13.8283 13.8412L13.7104 14.1186C13.7521 14.1363 13.7973 14.1459 13.8436 14.1459V13.8445ZM13.8294 13.8417L6.79308 10.7889L6.67312 11.0654L13.7094 14.1182L13.8294 13.8417ZM6.79311 10.7889C6.78132 10.7838 6.77646 10.774 6.77631 10.7666L6.47497 10.773C6.47772 10.9018 6.55673 11.0149 6.6731 11.0654L6.79311 10.7889ZM6.77631 10.767C6.77618 10.7597 6.78045 10.7499 6.79204 10.7444L6.66146 10.4727C6.54707 10.5277 6.47256 10.6437 6.47496 10.7726L6.77631 10.767ZM6.79191 10.7444L14.626 6.98751L14.4957 6.71574L6.66158 10.4727L6.79191 10.7444ZM14.6261 6.98747C14.6374 6.98206 14.6511 6.98327 14.6607 6.98986L14.8306 6.74086C14.7313 6.67316 14.603 6.66416 14.4956 6.71579L14.6261 6.98747ZM14.661 6.99005C14.6699 6.99609 14.6728 7.00465 14.672 7.01187L14.9714 7.04664C14.9854 6.9257 14.9303 6.80856 14.8303 6.74067L14.661 6.99005ZM14.672 7.01172L13.8742 13.8216L14.1736 13.8566L14.9714 7.04679L14.672 7.01172ZM13.8742 13.8215C13.8735 13.8279 13.8693 13.8353 13.8609 13.8399L14.0061 14.1041C14.0982 14.0534 14.1612 13.9616 14.1735 13.8567L13.8742 13.8215ZM13.8601 13.8404C13.8554 13.843 13.8497 13.8445 13.8436 13.8445V14.1459C13.8996 14.1459 13.956 14.132 14.0069 14.1036L13.8601 13.8404Z" fill="#4DA1FF"/>
<path fill-rule="evenodd" clip-rule="evenodd" d="M10.039 15.0949C10.0225 15.0949 10.0058 15.0926 9.98926 15.0882C9.91066 15.0663 9.85693 14.9965 9.85747 14.9174L9.88016 12.1007C9.88053 12.0587 9.8965 12.0182 9.925 11.9865L14.5021 6.89429C14.5682 6.82106 14.6829 6.81349 14.7584 6.87721C14.8339 6.94129 14.8417 7.05238 14.7758 7.12561L10.2429 12.1687L10.2256 14.2842L11.2258 12.6944C11.2783 12.6113 11.3899 12.585 11.4754 12.6357C11.5609 12.6863 11.588 12.7949 11.5357 12.8776L10.194 15.0105C10.1604 15.0639 10.1011 15.0949 10.039 15.0949" fill="#4DA1FF"/>
<path d="M10.039 15.0949C10.0225 15.0949 10.0058 15.0926 9.98926 15.0882C9.91066 15.0663 9.85693 14.9965 9.85747 14.9174L9.88016 12.1007C9.88053 12.0587 9.8965 12.0182 9.925 11.9865L14.5021 6.89429C14.5682 6.82106 14.6829 6.81349 14.7584 6.87721C14.8339 6.94129 14.8417 7.05238 14.7758 7.12561L10.2429 12.1687L10.2256 14.2842L11.2258 12.6944C11.2783 12.6113 11.3899 12.585 11.4754 12.6357C11.5609 12.6863 11.588 12.7949 11.5357 12.8776L10.194 15.0105C10.1604 15.0639 10.1011 15.0949 10.039 15.0949" stroke="#4DA1FF" stroke-width="0.3"/>
</g>
</svg>
