<svg width="20" height="20" viewBox="0 0 20 20" fill="none" xmlns="http://www.w3.org/2000/svg">
<g clip-path="url(#clip0_52_136)">
<path d="M17.6271 4.49169L17.6171 4.45324C18.4645 3.94527 19.1487 3.10787 19.4531 2.14856C18.6593 2.62082 17.7307 2.97894 16.7968 3.16418C16.0479 2.3663 15.0488 1.87512 13.8672 1.87512C11.6026 1.87512 9.72656 3.70861 9.72656 5.97667C9.72656 6.32426 9.75524 6.66087 9.79354 6.95567C7.79953 6.80079 5.92576 6.15382 4.21221 5.02651C2.71594 4.04232 1.90936 3.04043 1.90249 3.03189C1.68277 2.75341 1.30298 2.65774 0.977816 2.79919C0.6525 2.94064 0.463291 3.28335 0.51685 3.63384C0.535465 3.75484 0.916933 6.1465 2.35842 8.23038C2.02243 8.17804 1.82193 8.08466 1.78348 8.06559C1.50455 7.90033 1.1626 7.9307 0.908846 8.13303C0.653568 8.33658 0.562321 8.68341 0.664096 8.99362C0.697055 9.09433 1.38263 11.0934 3.88582 12.1528C3.34948 12.3075 2.87371 12.3049 2.86761 12.3049C2.86227 12.3049 2.85693 12.3048 2.85159 12.3048C2.52093 12.3048 2.22537 12.5134 2.11505 12.8262C2.00274 13.144 2.10727 13.498 2.37399 13.7041C2.43426 13.7507 3.55486 14.6021 5.37599 15.0324C4.73894 15.3831 3.98699 15.5941 3.12579 15.6629C1.93393 15.7581 0.975374 15.5323 0.967592 15.5303C0.571323 15.4333 0.16712 15.6573 0.0394041 16.0447C-0.0883114 16.4321 0.103796 16.8526 0.480229 17.0099C0.592991 17.0569 3.27257 18.164 5.93766 18.164C7.78763 18.164 9.17328 17.9955 10.4301 17.6177C11.9986 17.1461 13.3302 16.3418 14.5007 15.1589C14.8042 14.8522 14.8016 14.3575 14.4949 14.054C14.1881 13.7505 13.6935 13.7531 13.39 14.06C11.3028 16.1693 8.90121 16.6016 5.93766 16.6016C5.86824 16.6016 5.79881 16.6007 5.72923 16.5989C6.55595 16.2194 7.26487 15.6782 7.83097 14.9874C8.01972 14.757 8.06122 14.4395 7.93762 14.1683C7.81418 13.8973 7.54731 13.7202 7.24961 13.7113C6.43388 13.6874 5.71336 13.5311 5.1198 13.3372C5.56047 13.1133 5.9897 12.7953 6.32829 12.3438C6.49094 12.127 6.52955 11.8414 6.43037 11.5891C6.33119 11.3369 6.10826 11.1541 5.84153 11.1062C4.52989 10.8704 3.65877 10.3425 3.09374 9.82278C3.41082 9.8063 3.75918 9.75824 4.135 9.6644C4.41057 9.59543 4.62709 9.38241 4.70033 9.10791C4.77358 8.83356 4.69225 8.5409 4.48763 8.34391C3.77947 7.66154 3.26479 6.8159 2.8966 6.01817C3.02508 6.11018 3.15905 6.2028 3.29821 6.29542C4.84911 7.32615 7.39945 8.55478 10.7423 8.55478C10.9854 8.55478 11.2146 8.4411 11.3623 8.24808C11.5101 8.05521 11.5596 7.80375 11.4964 7.56907C11.4943 7.56144 11.2892 6.79133 11.2892 5.97667C11.2892 5.30391 11.5576 4.66854 12.0451 4.18773C12.5354 3.70403 13.1825 3.43762 13.8673 3.43762C14.5596 3.43762 15.162 3.70541 15.6578 4.23351C16.0157 4.57042 16.4064 5.46886 16.4064 6.01115V6.48448C16.4064 6.50096 16.408 6.52339 16.412 6.54994C16.4087 6.57984 16.4064 6.61006 16.4064 6.64073C16.4064 8.41669 16.0777 9.9978 15.4294 11.34C15.2417 11.7286 15.4046 12.1957 15.7931 12.3833C15.9027 12.4361 16.0183 12.4612 16.1323 12.4612C16.4228 12.4612 16.7016 12.2985 16.8364 12.0196C17.5879 10.4636 17.9689 8.65396 17.9689 6.64073C17.9689 6.61097 17.9667 6.58168 17.9635 6.55284C17.9672 6.52598 17.9689 6.50279 17.9689 6.48448V5.93761C18.7715 5.35793 19.4511 4.575 20.0001 3.75011C19.9999 3.75011 18.5598 4.43248 17.6271 4.49169V4.49169Z" fill="#4C5D77"/>
</g>
<defs>
<clipPath id="clip0_52_136">
<rect width="20" height="20" fill="white"/>
</clipPath>
</defs>
</svg>
