<svg width="40" height="40" viewBox="0 0 40 40" fill="none" xmlns="http://www.w3.org/2000/svg">
<g clip-path="url(#clip0_59_431)">
<path d="M0.837396 16.8384C2.96187 9.24061 8.20285 3.72522 13.2973 3.72522C13.7065 3.72522 14.1153 3.76084 14.5135 3.83126C14.7394 3.87093 14.9369 4.00368 15.0591 4.19634C15.181 4.39021 15.2154 4.62576 15.1534 4.84594L14.1048 8.59707C14.0036 8.95931 13.6543 9.20418 13.2912 9.18758L13.2079 9.18596C11.3185 9.18596 7.8657 12.0175 6.10549 18.3108C6.03587 18.5605 5.9699 18.8159 5.90635 19.0822C7.88229 18.1044 10.2395 17.8781 12.3741 18.4727C17.1897 19.8201 20.0107 24.8332 18.6646 29.648C17.5734 33.5493 13.9846 36.2748 9.93716 36.2748C9.1127 36.2748 8.28946 36.161 7.4901 35.9372C4.31452 35.0496 1.92696 32.4132 0.766973 28.5151C-0.280088 24.9983 -0.253782 20.7425 0.837396 16.8384Z" fill="#7737FF"/>
<path d="M34.2981 3.72601C34.7065 3.72601 35.1157 3.76082 35.5136 3.83125C35.739 3.8701 35.9369 4.00366 36.0588 4.19632C36.1806 4.39019 36.215 4.62575 36.1535 4.84593L35.1044 8.59705C35.0032 8.95929 34.6604 9.20416 34.2909 9.18757L34.2083 9.18595C32.319 9.18595 28.8657 12.0175 27.1055 18.3108C27.0355 18.5621 26.9695 18.8175 26.9064 19.0822C28.8831 18.1044 31.2395 17.8781 33.3741 18.4727C38.1889 19.8201 41.0108 24.8332 39.6638 29.648C38.5726 33.5492 34.9838 36.2748 30.9364 36.2748C30.1119 36.2748 29.2887 36.161 28.4889 35.9372C25.3137 35.0496 22.9262 32.4131 21.7658 28.5151C20.7191 24.9983 20.745 20.7421 21.8366 16.8375C23.9623 9.24059 29.2025 3.72601 34.2981 3.72601Z" fill="#7737FF"/>
</g>
<defs>
<clipPath id="clip0_59_431">
<rect width="40" height="40" fill="white" transform="matrix(-1 0 0 1 40 0)"/>
</clipPath>
</defs>
</svg>
