<svg width="46" height="30" viewBox="0 0 46 30" fill="none" xmlns="http://www.w3.org/2000/svg">
<path d="M43.9148 27.3252L33.1179 19.8992C35.894 17.7169 37.415 14.971 37.415 12.1125C37.415 5.43377 29.1983 0 19.0991 0C8.99987 0 0.783203 5.43377 0.783203 12.1125C0.783203 18.7912 8.99987 24.225 19.0991 24.225C22.8905 24.225 26.5035 23.4687 29.5925 22.0331L40.4714 29.5155C40.9261 29.8278 41.5377 30 42.1931 30C42.8134 30 43.4019 29.8436 43.8487 29.5592C44.7979 28.9552 44.8282 27.9535 43.9148 27.3252ZM19.0991 3.15978C26.564 3.15978 32.6369 7.17586 32.6369 12.1125C32.6369 17.0491 26.564 21.0652 19.0991 21.0652C11.6342 21.0652 5.56126 17.0491 5.56126 12.1125C5.56126 7.17586 11.6342 3.15978 19.0991 3.15978Z" fill="#4C5D77"/>
</svg>
