<svg width="25" height="25" viewBox="0 0 25 25" fill="none" xmlns="http://www.w3.org/2000/svg">
<rect x="0.5" y="0.5" width="24" height="24" rx="2" fill="white" stroke="#4DA1FF" stroke-opacity="0.7"/>
<path fill-rule="evenodd" clip-rule="evenodd" d="M8.19478 12.1008L15.5767 15.2437L16.4136 8.2325L8.19478 12.1008ZM15.751 15.7317C15.722 15.7317 15.6931 15.7258 15.6662 15.7145L7.62288 12.29C7.54963 12.2588 7.50169 12.1899 7.50003 12.1134C7.49858 12.037 7.54361 11.9665 7.61562 11.9325L16.5709 7.71806C16.6388 7.68607 16.7199 7.69179 16.7822 7.73346C16.8444 7.77493 16.8776 7.84544 16.8691 7.91732L15.9571 15.5565C15.9496 15.6189 15.9112 15.6746 15.8538 15.7056C15.822 15.723 15.7865 15.7317 15.751 15.7317Z" fill="#4DA1FF"/>
<path d="M8.19478 12.1008L8.1309 11.9651L7.82797 12.1076L8.13602 12.2388L8.19478 12.1008ZM15.5767 15.2437L15.518 15.3817L15.702 15.4601L15.7257 15.2615L15.5767 15.2437ZM16.4136 8.2325L16.5626 8.25028L16.5946 7.98152L16.3497 8.09678L16.4136 8.2325ZM15.6662 15.7145L15.6074 15.8525L15.6084 15.853L15.6662 15.7145ZM7.62288 12.29L7.5641 12.428L7.56412 12.428L7.62288 12.29ZM7.50003 12.1134L7.35006 12.1163L7.35007 12.1167L7.50003 12.1134ZM7.61562 11.9325L7.55174 11.7968L7.55162 11.7969L7.61562 11.9325ZM16.5709 7.71806L16.6348 7.85378L16.6349 7.85374L16.5709 7.71806ZM16.7822 7.73346L16.6987 7.85812L16.699 7.8583L16.7822 7.73346ZM16.8691 7.91732L17.018 7.9351L17.0181 7.93495L16.8691 7.91732ZM15.9571 15.5565L16.106 15.5744L16.106 15.5743L15.9571 15.5565ZM15.8538 15.7056L15.7825 15.5736L15.7817 15.5741L15.8538 15.7056ZM8.13602 12.2388L15.518 15.3817L15.6355 15.1057L8.25354 11.9628L8.13602 12.2388ZM15.7257 15.2615L16.5626 8.25028L16.2647 8.21472L15.4278 15.2259L15.7257 15.2615ZM16.3497 8.09678L8.1309 11.9651L8.25865 12.2365L16.4775 8.36822L16.3497 8.09678ZM15.751 15.5817C15.7424 15.5817 15.7331 15.5799 15.7239 15.5761L15.6084 15.853C15.6532 15.8716 15.7016 15.8817 15.751 15.8817V15.5817ZM15.7249 15.5765L7.68164 12.152L7.56412 12.428L15.6074 15.8525L15.7249 15.5765ZM7.68166 12.152C7.65978 12.1427 7.65031 12.1246 7.65 12.1102L7.35007 12.1167C7.35308 12.2551 7.43948 12.3749 7.5641 12.428L7.68166 12.152ZM7.65001 12.1106C7.64974 12.0963 7.65821 12.0783 7.67961 12.0682L7.55162 11.7969C7.42901 11.8547 7.34743 11.9777 7.35006 12.1163L7.65001 12.1106ZM7.67949 12.0683L16.6348 7.85378L16.507 7.58234L7.55174 11.7968L7.67949 12.0683ZM16.6349 7.85374C16.6556 7.84397 16.6807 7.84608 16.6987 7.85812L16.8656 7.60881C16.7591 7.53751 16.6219 7.52817 16.5069 7.58238L16.6349 7.85374ZM16.699 7.8583C16.7159 7.86959 16.7218 7.88589 16.7201 7.89969L17.0181 7.93495C17.0334 7.80498 16.9729 7.68028 16.8653 7.60863L16.699 7.8583ZM16.7202 7.89954L15.8082 15.5388L16.106 15.5743L17.018 7.9351L16.7202 7.89954ZM15.8082 15.5387C15.8067 15.551 15.7986 15.5649 15.7825 15.5736L15.925 15.8377C16.0238 15.7843 16.0926 15.6869 16.106 15.5744L15.8082 15.5387ZM15.7817 15.5741C15.7728 15.579 15.7622 15.5817 15.751 15.5817V15.8817C15.8109 15.8817 15.8712 15.8671 15.9258 15.8372L15.7817 15.5741Z" fill="#4DA1FF"/>
<path fill-rule="evenodd" clip-rule="evenodd" d="M11.4019 16.9651C11.383 16.9651 11.3639 16.9625 11.345 16.9576C11.2551 16.9331 11.1937 16.8547 11.1943 16.7661L11.2203 13.6063C11.2207 13.5591 11.239 13.5137 11.2715 13.4782L16.5037 7.76578C16.5792 7.68363 16.7104 7.67513 16.7967 7.74662C16.883 7.81851 16.8919 7.94312 16.8166 8.02527L11.6349 13.6826L11.6152 16.0557L12.7586 14.2722C12.8185 14.179 12.9461 14.1496 13.0439 14.2065C13.1416 14.2632 13.1725 14.385 13.1128 14.4778L11.5791 16.8705C11.5407 16.9304 11.4728 16.9651 11.4019 16.9651" fill="#4DA1FF"/>
<path d="M11.4019 16.9651C11.383 16.9651 11.3639 16.9625 11.345 16.9576C11.2551 16.9331 11.1937 16.8547 11.1943 16.7661L11.2203 13.6063C11.2207 13.5591 11.239 13.5137 11.2715 13.4782L16.5037 7.76578C16.5792 7.68363 16.7104 7.67513 16.7967 7.74662C16.883 7.81851 16.8919 7.94312 16.8166 8.02527L11.6349 13.6826L11.6152 16.0557L12.7586 14.2722C12.8185 14.179 12.9461 14.1496 13.0439 14.2065C13.1416 14.2632 13.1725 14.385 13.1128 14.4778L11.5791 16.8705C11.5407 16.9304 11.4728 16.9651 11.4019 16.9651" stroke="#4DA1FF" stroke-width="0.3"/>
</svg>
