<svg width="55" height="55" viewBox="0 0 55 55" fill="none" xmlns="http://www.w3.org/2000/svg">
<circle cx="27.5" cy="27.5" r="27.5" fill="#FAF3EB"/>
<path d="M21.7976 34.72C22.2813 34.2274 22.2749 33.4364 21.7833 32.9518C17.7311 28.9692 15.5 25.435 15.5 23C15.5 19.8988 18.0232 17.375 21.125 17.375C24.2268 17.375 26.75 19.8988 26.75 23C26.75 23.69 27.31 24.25 28 24.25C28.69 24.25 29.25 23.69 29.25 23C29.25 19.8988 31.7732 17.375 34.875 17.375C37.9768 17.375 40.5 19.8988 40.5 23C40.5 27.8795 32.0775 35.2443 28.0043 38.318C27.4214 37.8737 26.5294 37.1757 25.4857 36.2993C24.9568 35.8555 24.1688 35.9239 23.7251 36.4525C23.2808 36.9813 23.3494 37.7693 23.878 38.213C25.8036 39.8307 27.2111 40.847 27.27 40.8894C27.4882 41.0469 27.7437 41.125 28 41.125C28.2557 41.125 28.5118 41.0469 28.73 40.89C30.1906 39.8387 43 30.4081 43 23C43 18.52 39.355 14.875 34.875 14.875C31.9838 14.875 29.4407 16.3932 28 18.6738C26.5593 16.3932 24.0162 14.875 21.125 14.875C16.645 14.875 13 18.52 13 23C13 26.2007 15.3651 30.1487 20.03 34.7349C20.522 35.2186 21.3145 35.2119 21.7976 34.72V34.72Z" fill="#FF9900"/>
</svg>
