<svg width="28" height="30" viewBox="0 0 28 30" fill="none" xmlns="http://www.w3.org/2000/svg">
<g clip-path="url(#clip0_0_9)">
<path d="M25.7789 4.23826C24.3295 2.55958 22.3407 1.63504 20.1784 1.63504C18.5621 1.63504 17.0819 2.18068 15.7787 3.25669C15.1212 3.79983 14.5254 4.46432 14.0001 5.2399C13.475 4.46455 12.879 3.79983 12.2213 3.25669C10.9184 2.18068 9.43815 1.63504 7.82187 1.63504C5.65956 1.63504 3.6705 2.55958 2.22106 4.23826C0.788916 5.89732 0 8.16385 0 10.6206C0 13.1492 0.882484 15.4639 2.77712 17.9052C4.47202 20.0889 6.90798 22.3057 9.7289 24.8726C10.6921 25.7493 11.784 26.7429 12.9177 27.8014C13.2172 28.0815 13.6015 28.2357 14.0001 28.2357C14.3985 28.2357 14.783 28.0815 15.0821 27.8018C16.2158 26.7432 17.3083 25.749 18.272 24.872C21.0925 22.3055 23.5284 20.0889 25.2233 17.9049C27.1179 15.4639 28.0002 13.1492 28.0002 10.6204C28.0002 8.16385 27.2113 5.89732 25.7789 4.23826Z" fill="#FB5392"/>
</g>
<defs>
<clipPath id="clip0_0_9">
<rect width="27.2639" height="29.1129" fill="white" transform="scale(1.02701)"/>
</clipPath>
</defs>
</svg>
