<svg width="25" height="20" viewBox="0 0 25 20" fill="none" xmlns="http://www.w3.org/2000/svg">
<rect x="0.5" y="0.5" width="24" height="18.2769" rx="2" fill="white" stroke="#4DA1FF" stroke-opacity="0.7"/>
<path fill-rule="evenodd" clip-rule="evenodd" d="M8.19478 9.33441L15.5767 11.7279L16.4136 6.38856L8.19478 9.33441ZM15.751 12.0995C15.722 12.0995 15.6931 12.095 15.6662 12.0864L7.62288 9.4785C7.54963 9.45474 7.50169 9.40225 7.50003 9.34405C7.49858 9.28585 7.54361 9.23216 7.61562 9.20629L16.5709 5.9968C16.6388 5.97244 16.7199 5.9768 16.7822 6.00853C16.8444 6.04012 16.8776 6.09381 16.8691 6.14855L15.9571 11.9661C15.9496 12.0136 15.9112 12.056 15.8538 12.0797C15.822 12.0929 15.7865 12.0995 15.751 12.0995Z" fill="#4DA1FF"/>
<path d="M8.19478 9.33441L8.14417 9.19321L7.73037 9.34153L8.14851 9.4771L8.19478 9.33441ZM15.5767 11.7279L15.5305 11.8706L15.6977 11.9248L15.7249 11.7511L15.5767 11.7279ZM16.4136 6.38856L16.5618 6.41179L16.601 6.16207L16.363 6.24736L16.4136 6.38856ZM15.6662 12.0864L15.6199 12.2291L15.6207 12.2294L15.6662 12.0864ZM7.62288 9.4785L7.5766 9.62118L7.57662 9.62118L7.62288 9.4785ZM7.50003 9.34405L7.35008 9.34779L7.3501 9.34832L7.50003 9.34405ZM7.61562 9.20629L7.56501 9.06508L7.5649 9.06512L7.61562 9.20629ZM16.5709 5.9968L16.6215 6.13801L16.6216 6.13798L16.5709 5.9968ZM16.7822 6.00853L16.714 6.14217L16.7143 6.1423L16.7822 6.00853ZM16.8691 6.14855L17.0173 6.17178L17.0173 6.17158L16.8691 6.14855ZM15.9571 11.9661L16.1053 11.9894L16.1053 11.9893L15.9571 11.9661ZM15.8538 12.0797L15.7968 11.9409L15.796 11.9412L15.8538 12.0797ZM8.14851 9.4771L15.5305 11.8706L15.623 11.5852L8.24104 9.19173L8.14851 9.4771ZM15.7249 11.7511L16.5618 6.41179L16.2654 6.36533L15.4285 11.7047L15.7249 11.7511ZM16.363 6.24736L8.14417 9.19321L8.24539 9.47562L16.4642 6.52977L16.363 6.24736ZM15.751 11.9495C15.7373 11.9495 15.7238 11.9473 15.7116 11.9435L15.6207 12.2294C15.6625 12.2426 15.7066 12.2495 15.751 12.2495V11.9495ZM15.7124 11.9437L7.66914 9.33581L7.57662 9.62118L15.6199 12.2291L15.7124 11.9437ZM7.66916 9.33582C7.6536 9.33077 7.64675 9.32455 7.64535 9.32301C7.64478 9.32239 7.64584 9.32336 7.64714 9.32635C7.64851 9.32949 7.64981 9.33412 7.64997 9.33977L7.3501 9.34832C7.3542 9.4921 7.46722 9.5857 7.5766 9.62118L7.66916 9.33582ZM7.64999 9.34031C7.65013 9.34595 7.64908 9.35091 7.64769 9.35458C7.64636 9.35811 7.64505 9.35962 7.64519 9.35945C7.64572 9.35882 7.65141 9.35282 7.66633 9.34746L7.5649 9.06512C7.45618 9.10418 7.34646 9.20255 7.35008 9.34779L7.64999 9.34031ZM7.66622 9.3475L16.6215 6.13801L16.5203 5.8556L7.56501 9.06508L7.66622 9.3475ZM16.6216 6.13798C16.6522 6.12698 16.6903 6.13005 16.714 6.14217L16.8503 5.87489C16.7495 5.82355 16.6253 5.8179 16.5202 5.85563L16.6216 6.13798ZM16.7143 6.1423C16.7249 6.14768 16.7263 6.15158 16.7247 6.14892C16.7238 6.14749 16.7223 6.14452 16.7213 6.14003C16.7203 6.13543 16.7201 6.13039 16.7209 6.12551L17.0173 6.17158C17.0387 6.0339 16.9512 5.92609 16.85 5.87476L16.7143 6.1423ZM16.7209 6.12532L15.8089 11.9429L16.1053 11.9893L17.0173 6.17178L16.7209 6.12532ZM15.8089 11.9428C15.8103 11.9338 15.814 11.9301 15.8132 11.931C15.8122 11.932 15.8075 11.9365 15.7968 11.9409L15.9108 12.2184C16.0011 12.1813 16.0874 12.1034 16.1053 11.9894L15.8089 11.9428ZM15.796 11.9412C15.7841 11.9462 15.7684 11.9495 15.751 11.9495V12.2495C15.8046 12.2495 15.8599 12.2396 15.9115 12.2181L15.796 11.9412Z" fill="#4DA1FF"/>
<path fill-rule="evenodd" clip-rule="evenodd" d="M11.4019 13.0386C11.383 13.0386 11.3639 13.0367 11.345 13.0329C11.2551 13.0143 11.1937 12.9545 11.1943 12.887L11.2203 10.4808C11.2207 10.4448 11.239 10.4102 11.2715 10.3832L16.5037 6.03297C16.5792 5.97041 16.7104 5.96394 16.7967 6.01838C16.883 6.07312 16.8919 6.16802 16.8166 6.23058L11.6349 10.5388L11.6152 12.3461L12.7586 10.9879C12.8185 10.9169 12.9461 10.8945 13.0439 10.9378C13.1416 10.981 13.1725 11.0738 13.1128 11.1444L11.5791 12.9666C11.5407 13.0121 11.4728 13.0386 11.4019 13.0386" fill="#4DA1FF"/>
<path d="M11.4019 13.0386C11.383 13.0386 11.3639 13.0367 11.345 13.0329C11.2551 13.0143 11.1937 12.9545 11.1943 12.887L11.2203 10.4808C11.2207 10.4448 11.239 10.4102 11.2715 10.3832L16.5037 6.03297C16.5792 5.97041 16.7104 5.96394 16.7967 6.01838C16.883 6.07312 16.8919 6.16802 16.8166 6.23058L11.6349 10.5388L11.6152 12.3461L12.7586 10.9879C12.8185 10.9169 12.9461 10.8945 13.0439 10.9378C13.1416 10.981 13.1725 11.0738 13.1128 11.1444L11.5791 12.9666C11.5407 13.0121 11.4728 13.0386 11.4019 13.0386" stroke="#4DA1FF" stroke-width="0.3"/>
</svg>
