<svg width="5" height="10" viewBox="0 0 5 10" fill="none" xmlns="http://www.w3.org/2000/svg">
<path fill-rule="evenodd" clip-rule="evenodd" d="M4.99875 7.51461C4.98829 8.88879 3.87394 10 2.49992 10C1.12575 10 0.0115621 8.88879 0.000937471 7.51461H0V3.13162V2.50477V1.87869C0 0.840912 0.839349 0 1.87494 0C2.91038 0 3.74989 0.840912 3.74989 1.87869V2.50477V3.13162V5.32781V6.11684V7.51461H3.74785C3.73723 8.19725 3.1835 8.74739 2.49992 8.74739C1.81619 8.74739 1.26262 8.19725 1.25199 7.51461H1.24996V6.88854V6.11684V5.32781V4.38362V3.64817V2.93788V2.50477H1.87494V3.11178V3.75723V5.07203V5.74857V6.41668V6.88854V7.51461C1.87494 7.86039 2.15478 8.14069 2.49992 8.14069C2.84507 8.14069 3.1249 7.86039 3.1249 7.51461V6.41668V5.74857V5.07203V4.38362V3.27646V3.13162V2.50477V1.87869H3.1235C3.12365 1.87229 3.1249 1.86588 3.1249 1.85932C3.1249 1.16731 2.56523 0.6067 1.87494 0.6067C1.1845 0.6067 0.624981 1.16731 0.624981 1.85932C0.624981 1.86588 0.626231 1.87229 0.626387 1.87869H0.624981V2.50477V3.13162V3.27646V4.38362V5.84185V7.51461C0.624981 8.5524 1.46433 9.39331 2.49992 9.39331C3.53536 9.39331 4.37487 8.5524 4.37487 7.51461V5.84185V1.87869V1.25262H4.99985V1.87869V7.51461H4.99875Z" fill="#4DA1FF"/>
</svg>
