<svg width="55" height="55" viewBox="0 0 55 55" fill="none" xmlns="http://www.w3.org/2000/svg">
<circle cx="27.5" cy="27.5" r="27.5" fill="#E8F8FE"/>
<g clip-path="url(#clip0_0_171)">
<path d="M39.8433 20.8937C39.2219 21.1943 38.9619 21.942 39.2625 22.563C40.0837 24.2595 40.5 26.0881 40.5 28C40.5 34.8924 34.8924 40.5 28 40.5C21.1076 40.5 15.5 34.8924 15.5 28C15.5 21.1076 21.1076 15.5 28 15.5C30.8561 15.5 33.5392 16.4326 35.76 18.1968C36.2986 18.6268 37.0863 18.5368 37.5163 17.9963C37.9463 17.4562 37.8563 16.6694 37.3155 16.2401C34.6864 14.1505 31.378 13 28 13C19.7294 13 13 19.7294 13 28C13 36.2706 19.7294 43 28 43C36.2706 43 43 36.2706 43 28C43 25.7081 42.4995 23.5118 41.5126 21.4744C41.2126 20.8519 40.4625 20.5925 39.8433 20.8937Z" fill="#20DAF1"/>
<path d="M28 18C27.31 18 26.75 18.56 26.75 19.25V28C26.75 28.69 27.31 29.25 28 29.25H34.25C34.94 29.25 35.5 28.69 35.5 28C35.5 27.31 34.94 26.75 34.25 26.75H29.25V19.25C29.25 18.56 28.69 18 28 18Z" fill="#20DAF1"/>
</g>
<defs>
<clipPath id="clip0_0_171">
<rect width="30" height="30" fill="white" transform="translate(13 13)"/>
</clipPath>
</defs>
</svg>
